<svg xmlns="http://www.w3.org/2000/svg" viewBox="0 0 640 420" role="img" aria-label="Bye Bite positive correction study">
  <defs>
    <linearGradient id="bg" x1="0" y1="0" x2="1" y2="1">
      <stop offset="0" stop-color="#241914"/>
      <stop offset="0.6" stop-color="#121211"/>
      <stop offset="1" stop-color="#2c231e"/>
    </linearGradient>
    <radialGradient id="warm" cx="36%" cy="34%" r="58%">
      <stop offset="0" stop-color="#d49b78" stop-opacity="0.34"/>
      <stop offset="1" stop-color="#d49b78" stop-opacity="0"/>
    </radialGradient>
    <filter id="shadow" x="-20%" y="-20%" width="140%" height="140%">
      <feDropShadow dx="0" dy="20" stdDeviation="20" flood-color="#000000" flood-opacity="0.32"/>
    </filter>
  </defs>
  <rect width="640" height="420" fill="url(#bg)"/>
  <rect width="640" height="420" fill="url(#warm)"/>
  <g opacity="0.14" stroke="#f4efe6" stroke-width="1">
    <path d="M80 90h480M80 330h480M130 54v312M510 54v312"/>
  </g>
  <g filter="url(#shadow)">
    <path d="M214 298c-13-49-16-111-7-184 4-34 36-58 70-53 33 5 56 36 52 69l-6 48c-3 25 13 48 37 54l38 9c33 8 55 39 50 73-6 38-43 63-80 53l-103-28c-25-7-44-22-51-41z" fill="#f0c9b7"/>
    <path d="M274 64c31 4 52 34 48 65l-7 50" fill="none" stroke="#c57a55" stroke-width="6" stroke-linecap="round" opacity="0.6"/>
    <path d="M258 93c28-10 52 10 49 40l-4 31c-2 14-15 24-29 21-21-4-37-22-39-44l-1-13c-2-17 7-30 24-35z" fill="#f7dfd4"/>
    <path d="M249 126c19-8 37-3 53 13" fill="none" stroke="#a9664a" stroke-width="5" stroke-linecap="round"/>
  </g>
  <g fill="#c57a55" opacity="0.95">
    <circle cx="414" cy="135" r="11"/>
    <circle cx="459" cy="161" r="7"/>
    <circle cx="388" cy="192" r="7"/>
    <circle cx="454" cy="230" r="10"/>
  </g>
  <g fill="none" stroke="#f4efe6" stroke-width="3" stroke-linecap="round" opacity="0.74">
    <path d="M384 119c31 9 59 29 82 60"/>
    <path d="M365 214c44 8 78 25 103 51"/>
    <path d="M171 252c18 38 47 67 88 86"/>
  </g>
</svg>
