<svg xmlns="http://www.w3.org/2000/svg" viewBox="0 0 640 420" role="img" aria-label="Storeat narrative plate study">
  <defs>
    <linearGradient id="bg" x1="0" y1="0" x2="1" y2="1">
      <stop offset="0" stop-color="#211814"/>
      <stop offset="0.6" stop-color="#111211"/>
      <stop offset="1" stop-color="#2b211c"/>
    </linearGradient>
    <radialGradient id="glow" cx="50%" cy="46%" r="60%">
      <stop offset="0" stop-color="#c57a55" stop-opacity="0.28"/>
      <stop offset="1" stop-color="#c57a55" stop-opacity="0"/>
    </radialGradient>
    <filter id="shadow" x="-20%" y="-20%" width="140%" height="140%">
      <feDropShadow dx="0" dy="22" stdDeviation="20" flood-color="#000000" flood-opacity="0.36"/>
    </filter>
  </defs>
  <rect width="640" height="420" fill="url(#bg)"/>
  <rect width="640" height="420" fill="url(#glow)"/>
  <g opacity="0.14" stroke="#f4efe6" stroke-width="1">
    <path d="M78 78h484M78 342h484M126 54v312M514 54v312"/>
  </g>
  <g filter="url(#shadow)">
    <circle cx="320" cy="217" r="128" fill="#f1d6c8"/>
    <circle cx="320" cy="217" r="91" fill="#211b17" opacity="0.96"/>
    <path d="M243 219c22-40 69-61 111-45 38 14 57 51 43 84-13 32-51 46-84 31-28-13-44-39-39-65" fill="none" stroke="#c57a55" stroke-width="8" stroke-linecap="round"/>
  </g>
  <g fill="#f4efe6">
    <circle cx="258" cy="216" r="10"/>
    <circle cx="318" cy="171" r="8"/>
    <circle cx="393" cy="226" r="9"/>
  </g>
  <g stroke="#f4efe6" stroke-width="6" stroke-linecap="round" opacity="0.75">
    <path d="M162 123v193"/>
    <path d="M146 123v59M178 123v59"/>
    <path d="M480 130c30 30 31 74 2 111v74"/>
  </g>
  <g fill="none" stroke="#c57a55" stroke-width="3" stroke-linecap="round" opacity="0.72">
    <path d="M217 105c65-34 136-37 213-10"/>
    <path d="M213 340c70 30 142 27 216-10"/>
  </g>
</svg>
