<svg xmlns="http://www.w3.org/2000/svg" viewBox="0 0 640 420" role="img" aria-label="Brush Monster action feedback study">
  <defs>
    <linearGradient id="bg" x1="0" y1="0" x2="1" y2="1">
      <stop offset="0" stop-color="#251a15"/>
      <stop offset="0.55" stop-color="#151413"/>
      <stop offset="1" stop-color="#2d211b"/>
    </linearGradient>
    <radialGradient id="glow" cx="70%" cy="22%" r="65%">
      <stop offset="0" stop-color="#c57a55" stop-opacity="0.32"/>
      <stop offset="1" stop-color="#c57a55" stop-opacity="0"/>
    </radialGradient>
    <filter id="softShadow" x="-20%" y="-20%" width="140%" height="140%">
      <feDropShadow dx="0" dy="18" stdDeviation="18" flood-color="#000000" flood-opacity="0.34"/>
    </filter>
  </defs>
  <rect width="640" height="420" fill="url(#bg)"/>
  <rect width="640" height="420" fill="url(#glow)"/>
  <g opacity="0.16" stroke="#f4efe6" stroke-width="1">
    <path d="M66 72H574"/>
    <path d="M66 348H574"/>
    <path d="M110 48V372"/>
    <path d="M530 48V372"/>
  </g>
  <g filter="url(#softShadow)">
    <path d="M120 254c78-72 196-98 362-86 26 2 46 23 46 49v20c0 27-23 48-50 45-151-17-260 3-328 57-28 22-69 3-69-32 0-20 15-39 39-53z" fill="#f3d8cc"/>
    <path d="M121 254c77-72 194-97 359-85" fill="none" stroke="#b96f50" stroke-width="8" stroke-linecap="round" opacity="0.62"/>
    <rect x="413" y="154" width="106" height="86" rx="24" fill="#e7bca8"/>
    <g stroke="#fff2eb" stroke-width="11" stroke-linecap="round">
      <path d="M436 164v-44"/>
      <path d="M462 161v-54"/>
      <path d="M489 166v-44"/>
      <path d="M514 178v-38"/>
    </g>
  </g>
  <g fill="none" stroke="#c57a55" stroke-width="3">
    <circle cx="482" cy="130" r="23"/>
    <circle cx="522" cy="115" r="11"/>
    <path d="M430 94c34-24 74-25 120-3"/>
  </g>
  <g fill="#f4efe6">
    <circle cx="478" cy="129" r="5"/>
    <circle cx="522" cy="115" r="4"/>
  </g>
  <g fill="none" stroke="#f4efe6" stroke-linecap="round" opacity="0.72">
    <path d="M162 205c25 12 47 32 62 61"/>
    <path d="M211 183c33 13 58 37 76 71"/>
    <path d="M271 170c39 10 67 31 86 64"/>
  </g>
</svg>
